<svg viewBox="0 0 100 100" fill="none" xmlns="http://www.w3.org/2000/svg">
	<defs>
		<linearGradient id="gradient" x1="14" y1="14" x2="86" y2="86" gradientUnits="userSpaceOnUse">
			<stop stop-color="#6549D5"/>
			<stop offset="0.5" stop-color="#e94057"/>
			<stop offset="1" stop-color="#f27121"/>
		</linearGradient>
	</defs>
	<path d="M48.1441 14.6217C48.8159 12.9488 51.1841 12.9488 51.8559 14.6217L59.8771 34.5961C60.1632 35.3085 60.8318 35.7943 61.5978 35.8462L83.0732 37.3024C84.8719 37.4244 85.6037 39.6767 84.2203 40.8326L67.7022 54.6336C67.113 55.1259 66.8576 55.9119 67.0449 56.6564L72.2963 77.5308C72.7362 79.2791 70.8202 80.6711 69.2934 79.7125L51.0634 68.2676C50.4132 67.8594 49.5868 67.8594 48.9366 68.2676L30.7066 79.7125C29.1798 80.6711 27.2638 79.2791 27.7037 77.5307L32.9551 56.6564C33.1424 55.9119 32.887 55.1259 32.2978 54.6336L15.7797 40.8326C14.3963 39.6767 15.1281 37.4244 16.9268 37.3024L38.4022 35.8462C39.1682 35.7943 39.8368 35.3085 40.1229 34.5961L48.1441 14.6217Z" fill="url(#gradient)"/>
</svg>
