<?xml version="1.0" standalone="no"?>
<!DOCTYPE svg PUBLIC "-//W3C//DTD SVG 20010904//EN"
 "http://www.w3.org/TR/2001/REC-SVG-20010904/DTD/svg10.dtd">
<svg version="1.0" xmlns="http://www.w3.org/2000/svg"
 width="700.000000pt" height="700.000000pt" viewBox="0 0 700.000000 700.000000"
 preserveAspectRatio="xMidYMid meet">
<metadata>
Created by potrace 1.14, written by Peter Selinger 2001-2017
</metadata>
<g transform="translate(0.000000,700.000000) scale(0.100000,-0.100000)"
fill="#000000" stroke="none">
<path d="M1320 6008 c-169 -30 -310 -177 -330 -343 -4 -33 -7 -553 -6 -1155
l1 -1095 25 -64 c33 -84 50 -102 1085 -1136 1127 -1126 1180 -1177 1253 -1204
67 -25 177 -34 241 -20 90 20 130 50 329 243 233 225 1855 1847 1959 1958 82
87 117 148 132 228 6 35 9 461 8 1165 l-2 1110 -23 54 c-51 120 -173 231 -283
257 -42 10 -1161 13 -1229 3 -91 -13 -71 -2 -520 -298 -113 -74 -263 -172
-334 -217 l-128 -82 -97 61 c-53 34 -98 64 -101 68 -3 3 -9 8 -15 10 -10 4
-184 118 -426 279 -66 44 -122 80 -124 80 -2 0 -21 12 -42 26 -21 14 -60 37
-88 52 l-50 25 -595 2 c-327 1 -615 -2 -640 -7z"/>
</g>
</svg>
