<?xml version="1.0" standalone="no"?>
<!DOCTYPE svg PUBLIC "-//W3C//DTD SVG 20010904//EN"
 "http://www.w3.org/TR/2001/REC-SVG-20010904/DTD/svg10.dtd">
<svg version="1.0" xmlns="http://www.w3.org/2000/svg"
 width="700.000000pt" height="700.000000pt" viewBox="0 0 700.000000 700.000000"
 preserveAspectRatio="xMidYMid meet">
<metadata>
Created by potrace 1.14, written by Peter Selinger 2001-2017
</metadata>
<g transform="translate(0.000000,700.000000) scale(0.100000,-0.100000)"
fill="#000000" stroke="none">
<path d="M3455 6055 c-22 -8 -49 -26 -60 -40 -15 -19 -301 -713 -422 -1025
-21 -54 -115 -289 -122 -305 -5 -11 -19 -45 -31 -75 -40 -101 -68 -116 -220
-125 -52 -3 -115 -7 -140 -10 -25 -2 -90 -6 -145 -10 -55 -3 -127 -8 -160 -10
-33 -3 -96 -7 -140 -10 -44 -3 -105 -7 -135 -10 -30 -2 -100 -7 -155 -10 -55
-3 -125 -8 -155 -10 -30 -2 -93 -7 -140 -10 -206 -14 -237 -16 -265 -22 -82
-16 -128 -96 -102 -179 8 -27 32 -54 97 -108 47 -39 87 -73 90 -76 3 -3 30
-25 60 -50 30 -25 57 -47 60 -50 3 -3 30 -25 60 -50 30 -25 57 -47 60 -50 3
-3 127 -106 275 -230 149 -123 272 -226 275 -230 3 -3 58 -49 122 -103 119
-99 148 -134 148 -182 0 -15 -68 -297 -151 -628 -83 -331 -153 -609 -154 -617
-2 -8 -18 -69 -35 -135 -18 -66 -32 -136 -32 -156 0 -78 54 -133 133 -137 41
-2 60 8 259 132 118 74 240 150 271 169 31 19 187 117 348 218 160 101 302
191 315 199 14 8 60 37 103 65 69 44 84 50 133 50 54 0 60 -3 315 -164 143
-91 287 -181 320 -201 33 -21 209 -131 390 -245 182 -115 349 -214 372 -221
37 -11 46 -10 82 8 55 27 84 69 83 122 0 22 -21 122 -47 221 -26 99 -49 188
-51 198 -2 10 -6 27 -9 37 -3 10 -8 27 -10 37 -2 10 -60 244 -129 520 -69 277
-126 515 -126 530 0 39 30 83 86 129 27 21 51 41 54 44 3 3 72 62 155 130 82
69 161 135 175 147 14 11 88 74 165 138 77 64 151 126 165 138 14 12 50 42 80
67 30 25 64 53 75 62 11 9 76 64 145 122 70 58 131 115 138 128 22 41 22 85
-1 130 -30 58 -67 74 -197 82 -58 4 -118 9 -135 11 -16 2 -79 7 -140 10 -60 3
-137 7 -170 10 -33 2 -96 7 -140 10 -44 3 -107 7 -140 10 -94 7 -223 15 -310
20 -44 3 -107 7 -140 9 -33 3 -105 8 -160 12 -156 10 -177 24 -225 148 -18 44
-38 95 -45 111 -7 17 -31 75 -53 130 -22 55 -76 190 -120 300 -45 110 -136
338 -204 506 -68 169 -132 318 -143 332 -18 25 -43 39 -90 51 -11 3 -38 -1
-60 -9z"/>
</g>
</svg>
