<?xml version="1.0" encoding="UTF-8" standalone="no"?>
<!DOCTYPE svg PUBLIC "-//W3C//DTD SVG 20010904//EN" "http://www.w3.org/TR/2001/REC-SVG-20010904/DTD/svg10.dtd">

<svg xmlns="http://www.w3.org/2000/svg" viewBox="0 0 100 100">
		<defs>
		<linearGradient id="gradient" x1="14" y1="14" x2="86" y2="86" gradientUnits="userSpaceOnUse">
			<stop stop-color="#6549D5"/>
			<stop offset="0.5" stop-color="#e94057"/>
			<stop offset="1" stop-color="#f27121"/>
		</linearGradient>
	</defs>
  <path fill="#e94057" d="M18.24 14.29C16.17 14.94 14.6 16.66 14.14 18.76C14.04 19.2 14 24.9 14 35.14C14 50.1 14.01 50.89 14.27 51.71C14.41 52.19 14.74 52.87 14.99 53.24C15.61 54.23 46.2 84.73 47 85.19C48.87 86.24 51.13 86.24 53 85.19C53.8 84.73 84.39 54.23 85.01 53.24C85.26 52.87 85.59 52.19 85.73 51.7C85.99 50.87 86 50.14 86 34.93C86 19.31 85.99 19.01 85.7 18.17C85.13 16.47 83.81 15.07 82.14 14.39C81.36 14.07 81.29 14.07 72.94 14.03C64.17 13.99 63.66 14.01 62.44 14.6C62.1 14.76 59.19 16.66 55.96 18.81C52.6 21.06 50.01 22.7 49.9 22.66C49.79 22.61 47.03 20.8 43.76 18.63C40.5 16.46 37.5 14.54 37.1 14.37C36.37 14.07 36.16 14.07 27.71 14.04C19.61 14.01 19.01 14.03 18.24 14.29Z" />
</svg>
