<?xml version="1.0" standalone="no"?>
<!DOCTYPE svg PUBLIC "-//W3C//DTD SVG 20010904//EN"
 "http://www.w3.org/TR/2001/REC-SVG-20010904/DTD/svg10.dtd">
<svg version="1.0" xmlns="http://www.w3.org/2000/svg"
 width="700.000000pt" height="700.000000pt" viewBox="0 0 700.000000 700.000000"
 preserveAspectRatio="xMidYMid meet">
<metadata>
Created by potrace 1.14, written by Peter Selinger 2001-2017
</metadata>
<g transform="translate(0.000000,700.000000) scale(0.100000,-0.100000)"
fill="#000000" stroke="none">
<path d="M1371 5725 c-41 -18 -79 -57 -97 -99 -11 -25 -13 -289 -14 -1429 0
-1355 1 -1399 19 -1435 26 -50 54 -74 216 -182 138 -92 319 -214 585 -395 74
-50 218 -148 320 -217 102 -68 262 -176 355 -240 94 -63 240 -161 325 -219 85
-57 157 -106 160 -109 3 -3 48 -33 100 -67 147 -97 178 -96 327 4 104 70 342
231 641 434 100 68 193 131 206 139 14 8 80 53 148 99 132 90 440 299 708 480
91 61 174 117 185 125 11 8 42 30 69 48 27 19 63 51 80 72 l31 38 0 1416 c0
1346 -1 1419 -18 1455 -22 46 -81 87 -136 94 -42 6 -131 -20 -131 -37 0 -5 -9
-12 -20 -15 -11 -3 -26 -12 -32 -18 -7 -7 -51 -38 -98 -69 -84 -55 -379 -255
-680 -459 -85 -58 -245 -167 -355 -241 -110 -74 -312 -211 -450 -304 l-250
-169 -65 0 -65 0 -303 205 c-166 113 -402 273 -525 355 -214 145 -415 281
-805 546 -285 193 -295 199 -349 205 -31 3 -60 -1 -82 -11z"/>
</g>
</svg>
